<svg width="108" height="108" viewBox="0 0 108 108" fill="none" xmlns="http://www.w3.org/2000/svg">
<path d="M54.45 107.09C83.9972 107.09 107.95 83.1372 107.95 53.59C107.95 24.0427 83.9972 0.0899658 54.45 0.0899658C24.9028 0.0899658 0.950012 24.0427 0.950012 53.59C0.950012 83.1372 24.9028 107.09 54.45 107.09Z" fill="url(#paint0_linear)"/>
<path d="M76.07 31.0699C76.01 31.0599 75.97 31.04 75.91 31.04H51.75C48.03 31.04 45.01 34.06 45.01 37.78V40.03C45.01 41.27 46.02 42.28 47.26 42.28C48.5 42.28 49.51 41.27 49.51 40.03V37.78C49.51 36.54 50.52 35.54 51.76 35.53H62.23L61.54 35.76C59.72 36.39 58.5 38.1 58.5 40.03V73.74H51.76C50.52 73.74 49.52 72.73 49.51 71.49V67C49.51 65.76 48.5 64.75 47.26 64.75C46.02 64.75 45.01 65.76 45.01 67V71.49C45.01 75.21 48.03 78.23 51.75 78.23H58.49V80.48C58.49 82.96 60.5 84.97 62.98 84.97C63.47 84.97 63.95 84.9 64.41 84.75L77.91 80.25C79.73 79.62 80.95 77.91 80.95 75.98V35.53C80.94 33.04 78.91 31.04 76.43 31.05C76.32 31.05 76.19 31.0599 76.07 31.0699Z" fill="white"/>
<path d="M51.09 51.92L42.1 42.93C41.22 42.05 39.8 42.05 38.92 42.93C38.5 43.35 38.26 43.93 38.26 44.52V51.26H29.27C28.03 51.26 27.02 52.27 27.02 53.51C27.02 54.75 28.03 55.76 29.27 55.76H38.26V62.5C38.26 63.74 39.26 64.75 40.5 64.75C41.1 64.75 41.67 64.5099 42.09 64.0899L51.08 55.0999C51.97 54.2199 51.97 52.8 51.09 51.92C51.09 51.92 51.1 51.92 51.09 51.92Z" fill="white"/>
<defs>
<linearGradient id="paint0_linear" x1="0.946411" y1="0.0920667" x2="107.946" y2="107.092" gradientUnits="userSpaceOnUse">
<stop stop-color="#00008E"/>
<stop offset="1" stop-color="#CC4F4F"/>
</linearGradient>
</defs>
</svg>
