<svg width="107" height="107" viewBox="0 0 107 107" fill="none" xmlns="http://www.w3.org/2000/svg">
<path d="M53.5 107C83.0472 107 107 83.0472 107 53.5C107 23.9528 83.0472 0 53.5 0C23.9528 0 0 23.9528 0 53.5C0 83.0472 23.9528 107 53.5 107Z" fill="url(#paint0_linear)"/>
<path d="M60.16 75.09V76.7501C60.16 78.0501 59.22 79.15 57.93 79.35L57.52 80.85C57.3 81.67 56.56 82.24 55.71 82.24H51.66C50.82 82.24 50.08 81.67 49.85 80.86L49.45 79.36C48.16 79.16 47.21 78.0501 47.21 76.7501V75.09C47.21 74.21 47.92 73.49 48.8 73.49H48.81H58.55C59.44 73.48 60.16 74.2 60.16 75.09ZM67.66 52.7701C67.66 56.3901 66.26 59.86 63.74 62.46C61.91 64.37 60.71 66.8001 60.31 69.4101C60.13 70.5301 59.16 71.36 58.02 71.36H49.35C48.22 71.37 47.25 70.5401 47.08 69.4201C46.67 66.8001 45.47 64.36 43.63 62.45C38.28 56.89 38.46 48.05 44.02 42.71C49.58 37.36 58.42 37.54 63.76 43.1C66.26 45.69 67.66 49.1501 67.66 52.7701ZM55.27 44.31C55.27 43.44 54.56 42.74 53.7 42.74C48.14 42.75 43.63 47.25 43.62 52.82C43.64 53.69 44.36 54.38 45.23 54.35C46.07 54.33 46.74 53.65 46.76 52.82C46.76 49 49.86 45.9001 53.69 45.8901C54.56 45.8901 55.26 45.19 55.26 44.33C55.27 44.32 55.27 44.31 55.27 44.31ZM53.7 34.22C54.57 34.22 55.27 33.5101 55.27 32.6501V27.1301C55.29 26.2601 54.6 25.5401 53.74 25.5201C52.87 25.5001 52.15 26.1901 52.13 27.0501C52.13 27.0801 52.13 27.1001 52.13 27.1301V32.6501C52.12 33.5101 52.83 34.22 53.7 34.22ZM35.16 52.7501C35.16 51.8801 34.45 51.1701 33.59 51.1701H28.07C27.2 51.1901 26.51 51.9101 26.54 52.7801C26.56 53.6201 27.24 54.29 28.07 54.31H33.59C34.46 54.31 35.16 53.6101 35.16 52.7501C35.16 52.7601 35.16 52.7601 35.16 52.7501ZM79.32 51.1801H73.8C72.93 51.2001 72.24 51.9201 72.27 52.7901C72.29 53.6301 72.97 54.3 73.8 54.32H79.32C80.19 54.3 80.88 53.58 80.85 52.71C80.83 51.87 80.16 51.2001 79.32 51.1801ZM38.37 65.86L34.46 69.7701C33.84 70.3801 33.84 71.38 34.45 71.99C35.06 72.6 36.06 72.6101 36.67 72.0001L40.58 68.09C41.2 67.48 41.2 66.4801 40.59 65.8701C39.98 65.2601 38.99 65.25 38.37 65.86ZM67.91 40.11C68.32 40.11 68.72 39.9501 69.02 39.6601L72.93 35.7501C73.55 35.1301 73.55 34.1401 72.93 33.5201C72.31 32.9001 71.32 32.9001 70.7 33.5201L66.8 37.4301C66.18 38.0401 66.18 39.0401 66.79 39.6501L66.8 39.6601C67.09 39.9501 67.5 40.11 67.91 40.11ZM38.37 39.6401C38.99 40.2501 39.98 40.2501 40.59 39.6301C41.2 39.0101 41.2 38.0201 40.58 37.4101L36.67 33.5001C36.05 32.8801 35.06 32.8801 34.44 33.5001C33.82 34.1201 33.82 35.11 34.44 35.73L38.37 39.6401ZM69.02 65.86C68.42 65.23 67.42 65.22 66.79 65.82C66.16 66.42 66.15 67.4201 66.75 68.0501C66.76 68.0601 66.78 68.08 66.79 68.09L70.7 72.0001C71.32 72.6101 72.31 72.61 72.92 71.99C73.53 71.37 73.53 70.3801 72.91 69.7701L69.02 65.86Z" fill="white"/>
<path d="M60.16 75.09V76.7501C60.16 78.0501 59.22 79.15 57.93 79.35L57.52 80.85C57.3 81.67 56.56 82.24 55.71 82.24H51.66C50.82 82.24 50.08 81.67 49.85 80.86L49.45 79.36C48.16 79.16 47.21 78.0501 47.21 76.7501V75.09C47.21 74.21 47.92 73.49 48.8 73.49H48.81H58.55C59.44 73.48 60.16 74.2 60.16 75.09ZM67.66 52.7701C67.66 56.3901 66.26 59.86 63.74 62.46C61.91 64.37 60.71 66.8001 60.31 69.4101C60.13 70.5301 59.16 71.36 58.02 71.36H49.35C48.22 71.37 47.25 70.5401 47.08 69.4201C46.67 66.8001 45.47 64.36 43.63 62.45C38.28 56.89 38.46 48.05 44.02 42.71C49.58 37.36 58.42 37.54 63.76 43.1C66.26 45.69 67.66 49.1501 67.66 52.7701ZM55.27 44.31C55.27 43.44 54.56 42.74 53.7 42.74C48.14 42.75 43.63 47.25 43.62 52.82C43.64 53.69 44.36 54.38 45.23 54.35C46.07 54.33 46.74 53.65 46.76 52.82C46.76 49 49.86 45.9001 53.69 45.8901C54.56 45.8901 55.26 45.19 55.26 44.33C55.27 44.32 55.27 44.31 55.27 44.31ZM53.7 34.22C54.57 34.22 55.27 33.5101 55.27 32.6501V27.1301C55.29 26.2601 54.6 25.5401 53.74 25.5201C52.87 25.5001 52.15 26.1901 52.13 27.0501C52.13 27.0801 52.13 27.1001 52.13 27.1301V32.6501C52.12 33.5101 52.83 34.22 53.7 34.22ZM35.16 52.7501C35.16 51.8801 34.45 51.1701 33.59 51.1701H28.07C27.2 51.1901 26.51 51.9101 26.54 52.7801C26.56 53.6201 27.24 54.29 28.07 54.31H33.59C34.46 54.31 35.16 53.6101 35.16 52.7501C35.16 52.7601 35.16 52.7601 35.16 52.7501ZM79.32 51.1801H73.8C72.93 51.2001 72.24 51.9201 72.27 52.7901C72.29 53.6301 72.97 54.3 73.8 54.32H79.32C80.19 54.3 80.88 53.58 80.85 52.71C80.83 51.87 80.16 51.2001 79.32 51.1801ZM38.37 65.86L34.46 69.7701C33.84 70.3801 33.84 71.38 34.45 71.99C35.06 72.6 36.06 72.6101 36.67 72.0001L40.58 68.09C41.2 67.48 41.2 66.4801 40.59 65.8701C39.98 65.2601 38.99 65.25 38.37 65.86ZM67.91 40.11C68.32 40.11 68.72 39.9501 69.02 39.6601L72.93 35.7501C73.55 35.1301 73.55 34.1401 72.93 33.5201C72.31 32.9001 71.32 32.9001 70.7 33.5201L66.8 37.4301C66.18 38.0401 66.18 39.0401 66.79 39.6501L66.8 39.6601C67.09 39.9501 67.5 40.11 67.91 40.11ZM38.37 39.6401C38.99 40.2501 39.98 40.2501 40.59 39.6301C41.2 39.0101 41.2 38.0201 40.58 37.4101L36.67 33.5001C36.05 32.8801 35.06 32.8801 34.44 33.5001C33.82 34.1201 33.82 35.11 34.44 35.73L38.37 39.6401ZM69.02 65.86C68.42 65.23 67.42 65.22 66.79 65.82C66.16 66.42 66.15 67.4201 66.75 68.0501C66.76 68.0601 66.78 68.08 66.79 68.09L70.7 72.0001C71.32 72.6101 72.31 72.61 72.92 71.99C73.53 71.37 73.53 70.3801 72.91 69.7701L69.02 65.86Z" fill="white"/>
<defs>
<linearGradient id="paint0_linear" x1="0.00170011" y1="-0.00830011" x2="107.002" y2="106.992" gradientUnits="userSpaceOnUse">
<stop stop-color="#00008E"/>
<stop offset="1" stop-color="#CC4F4F"/>
</linearGradient>
</defs>
</svg>
