<svg width="108" height="108" viewBox="0 0 108 108" fill="none" xmlns="http://www.w3.org/2000/svg">
<path d="M54.04 107.54C83.5872 107.54 107.54 83.5873 107.54 54.04C107.54 24.4928 83.5872 0.540039 54.04 0.540039C24.4927 0.540039 0.539978 24.4928 0.539978 54.04C0.539978 83.5873 24.4927 107.54 54.04 107.54Z" fill="url(#paint0_linear)"/>
<path d="M66.33 54C66.33 61.36 60.36 67.33 53 67.33C45.64 67.33 39.67 61.36 39.67 54C39.67 46.64 45.64 40.67 53 40.67C60.36 40.67 66.33 46.64 66.33 54Z" fill="white"/>
<path d="M82.33 51.33H79.53C78.25 38.72 68.27 28.75 55.66 27.47V24.67C55.63 23.2 54.41 22.03 52.94 22.06C51.51 22.09 50.35 23.24 50.33 24.67V27.47C37.72 28.75 27.75 38.72 26.47 51.33H23.67C22.2 51.36 21.03 52.58 21.06 54.05C21.09 55.48 22.24 56.64 23.67 56.66H26.47C27.75 69.27 37.72 79.24 50.33 80.52V83.32C50.36 84.79 51.58 85.96 53.05 85.93C54.48 85.9 55.64 84.75 55.66 83.32V80.52C68.27 79.24 78.24 69.27 79.52 56.66H82.32C83.79 56.63 84.96 55.41 84.93 53.94C84.92 52.52 83.76 51.36 82.33 51.33ZM55.63 75.15C55.56 73.7 54.32 72.58 52.86 72.66C51.51 72.73 50.44 73.81 50.37 75.15C40.69 73.93 33.06 66.31 31.84 56.63C33.29 56.55 34.4 55.3 34.32 53.85C34.24 52.52 33.18 51.45 31.84 51.37C33.06 41.69 40.68 34.07 50.36 32.85C50.45 34.3 51.69 35.41 53.14 35.33C54.47 35.25 55.54 34.19 55.62 32.85C65.3 34.07 72.92 41.69 74.14 51.37C72.69 51.45 71.58 52.7 71.66 54.15C71.74 55.48 72.8 56.55 74.14 56.63C72.93 66.31 65.31 73.94 55.63 75.15Z" fill="white"/>
<defs>
<linearGradient id="paint0_linear" x1="0.539778" y1="0.528639" x2="107.54" y2="107.529" gradientUnits="userSpaceOnUse">
<stop stop-color="#00008E"/>
<stop offset="1" stop-color="#CC4F4F"/>
</linearGradient>
</defs>
</svg>
