<svg width="108" height="108" viewBox="0 0 108 108" fill="none" xmlns="http://www.w3.org/2000/svg">
<path d="M54.04 107.54C83.5872 107.54 107.54 83.5873 107.54 54.04C107.54 24.4928 83.5872 0.540039 54.04 0.540039C24.4928 0.540039 0.540009 24.4928 0.540009 54.04C0.540009 83.5873 24.4928 107.54 54.04 107.54Z" fill="url(#paint0_linear)"/>
<path d="M75.957 54.0201C75.957 41.9001 66.127 32.0701 54.007 32.0701C41.887 32.0701 32.067 41.9001 32.067 54.0201C32.067 66.14 41.897 75.9701 54.017 75.9701C66.127 75.9501 75.947 66.13 75.957 54.0201ZM39.277 56.2101L43.667 51.8201L50.877 58.9701L64.357 45.55L68.747 49.9401L50.877 67.8701L39.277 56.2101Z" fill="white"/>
<defs>
<linearGradient id="paint0_linear" x1="0.53371" y1="0.528638" x2="107.534" y2="107.529" gradientUnits="userSpaceOnUse">
<stop stop-color="#00008E"/>
<stop offset="1" stop-color="#CC4F4F"/>
</linearGradient>
</defs>
</svg>
