<svg width="108" height="108" viewBox="0 0 108 108" fill="none" xmlns="http://www.w3.org/2000/svg">
<path d="M54.1 107.63C83.6472 107.63 107.6 83.6772 107.6 54.13C107.6 24.5828 83.6472 0.630005 54.1 0.630005C24.5527 0.630005 0.599976 24.5828 0.599976 54.13C0.599976 83.6772 24.5527 107.63 54.1 107.63Z" fill="url(#paint0_linear)"/>
<path d="M63.009 36.7C55.479 29.15 43.249 29.1401 35.699 36.6801C28.149 44.2201 28.139 56.44 35.679 63.99C42.289 70.61 52.689 71.54 60.369 66.2C60.529 66.97 60.909 67.69 61.469 68.25L72.429 79.21C73.999 80.83 76.579 80.86 78.199 79.29C79.819 77.72 79.849 75.14 78.279 73.52C78.249 73.49 78.229 73.4699 78.199 73.4399L67.239 62.47C66.679 61.91 65.969 61.53 65.199 61.37C70.519 53.7 69.599 43.32 63.009 36.7ZM59.549 60.5501C53.919 66.1801 44.799 66.1801 39.169 60.5501C33.539 54.9201 33.539 45.8 39.169 40.17C44.799 34.54 53.919 34.54 59.549 40.17C65.169 45.8 65.169 54.9201 59.549 60.5501Z" fill="white"/>
<defs>
<linearGradient id="paint0_linear" x1="0.608175" y1="0.621705" x2="107.608" y2="107.622" gradientUnits="userSpaceOnUse">
<stop stop-color="#00008E"/>
<stop offset="1" stop-color="#CC4F4F"/>
</linearGradient>
</defs>
</svg>
