<svg width="110" height="110" viewBox="0 0 110 110" fill="none" xmlns="http://www.w3.org/2000/svg">
<path opacity="0.09" d="M75 0H35C15.67 0 0 15.67 0 35V75C0 94.33 15.67 110 35 110H75C94.33 110 110 94.33 110 75V35C110 15.67 94.33 0 75 0Z" fill="#2563FF"/>
<path fill-rule="evenodd" clip-rule="evenodd" d="M55.6965 35.6783L55.0048 35.6667C44.9976 35.6667 35.9791 42.7308 30.9805 54.2891C30.7843 54.743 30.7843 55.257 30.9805 55.7109L31.3269 56.4906C36.2621 67.3084 44.7907 74.0055 54.3035 74.3217L54.9952 74.3334C65.0024 74.3334 74.0209 67.2692 79.0195 55.7109C79.2182 55.2513 79.2156 54.7303 79.0123 54.2727L78.6757 53.5153C73.7285 42.6772 65.1963 35.9941 55.6965 35.6783ZM55.0218 39.2661L55.5992 39.2786L56.2445 39.3121C63.9711 39.8592 71.077 45.5884 75.3701 54.9979L75.3476 55.056C70.9469 64.6678 63.5959 70.4311 55.6257 70.7204L55.0097 70.7296L54.3884 70.7213L53.7448 70.6878C46.2582 70.1575 39.3554 64.7499 35.0363 55.8693L34.6275 54.9979L35.0059 54.1933C39.5603 44.7852 47.0044 39.2682 55.0218 39.2661ZM54.9988 45.6076C49.7778 45.6076 45.5472 49.8118 45.5472 55.0005C45.5472 60.1873 49.7783 64.391 54.9988 64.391C60.2196 64.391 64.4528 60.187 64.4528 55.0005C64.4528 49.812 60.2201 45.6076 54.9988 45.6076ZM54.9988 49.2091C58.2182 49.2091 60.8278 51.8013 60.8278 55.0005C60.8278 58.1975 58.2179 60.7894 54.9988 60.7894C51.7803 60.7894 49.1722 58.1982 49.1722 55.0005C49.1722 51.8007 51.78 49.2091 54.9988 49.2091Z" fill="#2563FF"/>
</svg>
