<svg width="90" height="90" viewBox="0 0 120 120" fill="none" xmlns="http://www.w3.org/2000/svg">
<path fill-rule="evenodd" clip-rule="evenodd" d="M60.8738 76.0825H59.1252C47.1083 76.0825 37.3679 66.4638 37.3679 54.6019V31.4854C37.3679 19.6187 47.1083 10 59.1252 10H60.8738C70.8467 10 79.2503 16.6197 81.8223 25.6549C82.1758 26.8937 81.241 28.1229 79.943 28.1229H74.2808C72.571 28.1229 71.1809 29.4909 71.1809 31.1793V31.1841C71.1809 32.8773 72.571 34.2452 74.2808 34.2452H79.5022C81.2313 34.2452 82.636 35.6275 82.636 37.3351C82.636 39.0426 81.2313 40.4249 79.5022 40.4249H74.2808C72.571 40.4249 71.1809 41.7977 71.1809 43.4909C71.1809 45.1793 72.571 46.552 74.2808 46.552H79.5022C81.2313 46.552 82.636 47.9343 82.636 49.6466C82.636 51.3494 81.2313 52.7317 79.5022 52.7317H74.2808C72.571 52.7317 71.1809 54.1044 71.1809 55.7976C71.1809 57.486 72.571 58.854 74.2808 58.854H79.6669C80.994 58.854 81.9434 60.1358 81.5268 61.3794C78.6546 69.9219 70.498 76.0825 60.8738 76.0825ZM92.8128 53.9141C92.8128 51.269 94.9828 49.131 97.6564 49.131C100.33 49.131 102.5 51.269 102.5 53.9141C102.5 75.433 86.0028 93.202 64.846 95.5887V105.217C64.846 107.857 62.6761 110 60.0024 110C57.3239 110 55.1588 107.857 55.1588 105.217V95.5887C33.9972 93.202 17.5 75.433 17.5 53.9141C17.5 51.269 19.6699 49.131 22.3436 49.131C25.0172 49.131 27.1872 51.269 27.1872 53.9141C27.1872 71.7787 41.9068 86.3144 60.0024 86.3144C78.0932 86.3144 92.8128 71.7787 92.8128 53.9141Z" fill="#E35151"/>
</svg>
