<svg width="90" height="90" viewBox="0 0 120 120" fill="none" xmlns="http://www.w3.org/2000/svg">
<path fill-rule="evenodd" clip-rule="evenodd" d="M53.5218 17.5949C50.1701 17.5949 47.3186 19.924 46.5182 23.0632H73.4317C72.6313 19.924 69.7799 17.5949 66.4282 17.5949H53.5218ZM81.0355 23.0632H90.9405C101.446 23.0632 110 31.7214 110 42.3543C110 42.3543 109.7 46.8555 109.6 53.1238C109.59 53.62 109.35 54.1061 108.954 54.3998C106.548 56.177 104.347 57.6453 104.147 57.7466C95.8429 63.3162 86.1931 67.2351 75.913 69.1845C75.2426 69.3162 74.5823 68.9668 74.2421 68.3693C71.3607 63.3769 65.978 60.1263 59.975 60.1263C54.012 60.1263 48.5793 63.3415 45.6128 68.3389C45.2676 68.9263 44.6173 69.2655 43.952 69.1389C33.7569 67.1845 24.1071 63.2706 15.8529 57.7972L11.0505 54.4555C10.6503 54.2023 10.4002 53.7466 10.4002 53.2403C10.2501 50.658 10 42.3543 10 42.3543C10 31.7214 18.5543 23.0632 29.0595 23.0632H38.9145C39.8649 15.7215 46.018 10 53.5218 10H66.4282C73.932 10 80.085 15.7215 81.0355 23.0632ZM108.299 64.0762L108.099 64.1775C97.9939 70.9623 85.8379 75.4686 73.0815 77.342C71.2806 77.5951 69.4797 76.4306 68.9794 74.6078C67.8789 70.4559 64.3271 67.7218 60.075 67.7218H60.025H59.9249C55.6728 67.7218 52.121 70.4559 51.0205 74.6078C50.5202 76.4306 48.7193 77.5951 46.9184 77.342C34.162 75.4686 22.0059 70.9623 11.9009 64.1775C11.8509 64.1269 11.3506 63.8231 10.9504 64.0762C10.5002 64.3294 10.5002 64.937 10.5002 64.937L10.8504 90.7596C10.8504 101.392 19.3546 110 29.8599 110H90.09C100.595 110 109.099 101.392 109.099 90.7596L109.5 64.937C109.5 64.937 109.5 64.3294 109.049 64.0762C108.799 63.9243 108.499 63.975 108.299 64.0762ZM63.7269 85.2914C63.7269 87.4179 62.0761 89.0888 59.975 89.0888C57.924 89.0888 56.2231 87.4179 56.2231 85.2914V78.7597C56.2231 76.6838 57.924 74.9623 59.975 74.9623C62.0761 74.9623 63.7269 76.6838 63.7269 78.7597V85.2914Z" fill="#FFFFFF"/>
</svg>
