<svg width="90" height="90" viewBox="0 0 120 120" fill="none" xmlns="http://www.w3.org/2000/svg">
<path fill-rule="evenodd" clip-rule="evenodd" d="M71.0619 38.8121C71.0619 52.0309 60.2448 62.6241 46.7467 62.6241C33.2536 62.6241 22.4316 52.0309 22.4316 38.8121C22.4316 25.5933 33.2536 15 46.7467 15C60.2448 15 71.0619 25.5933 71.0619 38.8121ZM10 89.5868C10 77.3502 26.9276 74.2886 46.7467 74.2886C66.6733 74.2886 83.4933 77.4556 83.4933 89.7018C83.4933 101.938 66.5657 105 46.7467 105C26.82 105 10 101.833 10 89.5868ZM80.867 39.2437C80.867 45.9753 78.8025 52.2565 75.1821 57.4741C74.8054 58.0107 75.1381 58.7342 75.7936 58.8492C76.7036 58.9977 77.6381 59.0887 78.5921 59.1079C88.0833 59.3522 96.6009 53.3681 98.9542 44.3559C102.442 30.9838 92.2076 18.9771 79.1694 18.9771C77.7555 18.9771 76.4003 19.1209 75.0794 19.3844C74.8983 19.4227 74.7026 19.5089 74.6048 19.6623C74.4776 19.8587 74.5705 20.1126 74.6977 20.2803C78.6165 25.6608 80.867 32.2103 80.867 39.2437ZM96.5864 68.5115C102.966 69.7333 107.159 72.2199 108.896 75.8468C110.368 78.8173 110.368 82.2669 108.896 85.2374C106.239 90.8527 97.6676 92.659 94.3359 93.1237C93.6461 93.2195 93.0933 92.6446 93.1666 91.9642C94.8692 76.4025 81.332 69.0242 77.829 67.3281C77.6823 67.2466 77.648 67.1317 77.6627 67.055C77.6725 67.0071 77.7361 66.9304 77.8486 66.9161C85.4269 66.7723 93.5776 67.7928 96.5864 68.5115Z" fill="#0F10AA"/>
</svg>
